<?xml version="1.0" encoding="UTF-8" standalone="no"?>
<!DOCTYPE svg PUBLIC "-//W3C//DTD SVG 1.1//EN"
 "http://www.w3.org/Graphics/SVG/1.1/DTD/svg11.dtd">
<!-- Generated by graphviz version 2.40.1 (20161225.0304)
 -->
<!-- Title: public.customers Pages: 1 -->
<svg width="677pt" height="592pt"
 viewBox="0.00 0.00 676.50 592.00" xmlns="http://www.w3.org/2000/svg" xmlns:xlink="http://www.w3.org/1999/xlink">
<g id="graph0" class="graph" transform="scale(1 1) rotate(0) translate(4 588)">
<title>public.customers</title>
<polygon fill="#ffffff" stroke="transparent" points="-4,4 -4,-588 672.5,-588 672.5,4 -4,4"/>
<!-- public.customers -->
<g id="node1" class="node">
<title>public.customers</title>
<polygon fill="#efefef" stroke="transparent" points="210.5,-165.5 210.5,-200.5 456.5,-200.5 456.5,-165.5 210.5,-165.5"/>
<polygon fill="none" stroke="#000000" points="210.5,-165.5 210.5,-200.5 456.5,-200.5 456.5,-165.5 210.5,-165.5"/>
<text text-anchor="start" x="217.3659" y="-178.3" font-family="Arial Bold" font-size="18.00" fill="#000000">public.customers</text>
<text text-anchor="start" x="352.3803" y="-178.3" font-family="Arial" font-size="14.00" fill="#000000"> </text>
<text text-anchor="start" x="356.2709" y="-178.3" font-family="Arial" font-size="14.00" fill="#666666">[BASE TABLE]</text>
<polygon fill="none" stroke="#000000" points="210.5,-135.5 210.5,-165.5 456.5,-165.5 456.5,-135.5 210.5,-135.5"/>
<text text-anchor="start" x="217.5" y="-146.9" font-family="Arial" font-size="14.00" fill="#000000">id </text>
<text text-anchor="start" x="232.2798" y="-146.9" font-family="Arial" font-size="14.00" fill="#666666">[integer]</text>
<polygon fill="none" stroke="#000000" points="210.5,-105.5 210.5,-135.5 456.5,-135.5 456.5,-105.5 210.5,-105.5"/>
<text text-anchor="start" x="217.5" y="-116.9" font-family="Arial" font-size="14.00" fill="#000000">full_name </text>
<text text-anchor="start" x="282.068" y="-116.9" font-family="Arial" font-size="14.00" fill="#666666">[varchar]</text>
<polygon fill="none" stroke="#000000" points="210.5,-75.5 210.5,-105.5 456.5,-105.5 456.5,-75.5 210.5,-75.5"/>
<text text-anchor="start" x="217.5" y="-86.9" font-family="Arial" font-size="14.00" fill="#000000">email </text>
<text text-anchor="start" x="254.8296" y="-86.9" font-family="Arial" font-size="14.00" fill="#666666">[varchar]</text>
<polygon fill="none" stroke="#000000" points="210.5,-45.5 210.5,-75.5 456.5,-75.5 456.5,-45.5 210.5,-45.5"/>
<text text-anchor="start" x="217.5" y="-56.9" font-family="Arial" font-size="14.00" fill="#000000">phone </text>
<text text-anchor="start" x="260.3036" y="-56.9" font-family="Arial" font-size="14.00" fill="#666666">[varchar]</text>
<polygon fill="none" stroke="#000000" stroke-width="3" points="209,-44.5 209,-202.5 458,-202.5 458,-44.5 209,-44.5"/>
</g>
<!-- public.payments -->
<g id="node2" class="node">
<title>public.payments</title>
<polygon fill="#efefef" stroke="transparent" points="43.5,-505.5 43.5,-540.5 284.5,-540.5 284.5,-505.5 43.5,-505.5"/>
<polygon fill="none" stroke="#000000" points="43.5,-505.5 43.5,-540.5 284.5,-540.5 284.5,-505.5 43.5,-505.5"/>
<text text-anchor="start" x="50.3589" y="-518.3" font-family="Arial Bold" font-size="18.00" fill="#000000">public.payments</text>
<text text-anchor="start" x="180.3873" y="-518.3" font-family="Arial" font-size="14.00" fill="#000000"> </text>
<text text-anchor="start" x="184.2779" y="-518.3" font-family="Arial" font-size="14.00" fill="#666666">[BASE TABLE]</text>
<polygon fill="none" stroke="#000000" points="43.5,-475.5 43.5,-505.5 284.5,-505.5 284.5,-475.5 43.5,-475.5"/>
<text text-anchor="start" x="50.5" y="-486.9" font-family="Arial" font-size="14.00" fill="#000000">id </text>
<text text-anchor="start" x="65.2798" y="-486.9" font-family="Arial" font-size="14.00" fill="#666666">[integer]</text>
<polygon fill="none" stroke="#000000" points="43.5,-445.5 43.5,-475.5 284.5,-475.5 284.5,-445.5 43.5,-445.5"/>
<text text-anchor="start" x="50.5" y="-456.9" font-family="Arial" font-size="14.00" fill="#000000">amount </text>
<text text-anchor="start" x="101.0722" y="-456.9" font-family="Arial" font-size="14.00" fill="#666666">[double precision]</text>
<polygon fill="none" stroke="#000000" points="43.5,-415.5 43.5,-445.5 284.5,-445.5 284.5,-415.5 43.5,-415.5"/>
<text text-anchor="start" x="50.5" y="-426.9" font-family="Arial" font-size="14.00" fill="#000000">datetime </text>
<text text-anchor="start" x="108.0694" y="-426.9" font-family="Arial" font-size="14.00" fill="#666666">[date]</text>
<polygon fill="none" stroke="#000000" points="43.5,-385.5 43.5,-415.5 284.5,-415.5 284.5,-385.5 43.5,-385.5"/>
<text text-anchor="start" x="50.5" y="-396.9" font-family="Arial" font-size="14.00" fill="#000000">method </text>
<text text-anchor="start" x="101.0722" y="-396.9" font-family="Arial" font-size="14.00" fill="#666666">[integer]</text>
<polygon fill="none" stroke="#000000" points="43.5,-355.5 43.5,-385.5 284.5,-385.5 284.5,-355.5 43.5,-355.5"/>
<text text-anchor="start" x="50.5" y="-366.9" font-family="Arial" font-size="14.00" fill="#000000">order_id </text>
<text text-anchor="start" x="105.7314" y="-366.9" font-family="Arial" font-size="14.00" fill="#666666">[integer]</text>
<polygon fill="none" stroke="#000000" points="43.5,-325.5 43.5,-355.5 284.5,-355.5 284.5,-325.5 43.5,-325.5"/>
<text text-anchor="start" x="50.5" y="-336.9" font-family="Arial" font-size="14.00" fill="#000000">customer_id </text>
<text text-anchor="start" x="130.622" y="-336.9" font-family="Arial" font-size="14.00" fill="#666666">[integer]</text>
</g>
<!-- public.payments&#45;&gt;public.customers -->
<g id="edge1" class="edge">
<title>public.payments:customer_id&#45;&gt;public.customers:id</title>
<path fill="none" stroke="#000000" d="M294.2044,-337.8272C306.0756,-329.1232 295.8297,-301.111 284.5,-283 265.103,-251.993 229.897,-278.007 210.5,-247 187.754,-210.6396 167.6111,-150.5 210.5,-150.5"/>
<polygon fill="#000000" stroke="#000000" points="294.141,-337.8446 283.3051,-336.1615 289.3205,-339.1723 284.5,-340.5 284.5,-340.5 284.5,-340.5 289.3205,-339.1723 285.6949,-344.8385 294.141,-337.8446 294.141,-337.8446"/>
<text text-anchor="start" x="291.1675" y="-324.5" font-family="Arial" font-size="10.00" fill="#000000">FOREIGN KEY (customer_id) REFERENCES customers(id)</text>
</g>
<!-- public.address -->
<g id="node3" class="node">
<title>public.address</title>
<polygon fill="#efefef" stroke="transparent" points="388.5,-460.5 388.5,-495.5 615.5,-495.5 615.5,-460.5 388.5,-460.5"/>
<polygon fill="none" stroke="#000000" points="388.5,-460.5 388.5,-495.5 615.5,-495.5 615.5,-460.5 388.5,-460.5"/>
<text text-anchor="start" x="395.36" y="-473.3" font-family="Arial Bold" font-size="18.00" fill="#000000">public.address</text>
<text text-anchor="start" x="511.3862" y="-473.3" font-family="Arial" font-size="14.00" fill="#000000"> </text>
<text text-anchor="start" x="515.2768" y="-473.3" font-family="Arial" font-size="14.00" fill="#666666">[BASE TABLE]</text>
<polygon fill="none" stroke="#000000" points="388.5,-430.5 388.5,-460.5 615.5,-460.5 615.5,-430.5 388.5,-430.5"/>
<text text-anchor="start" x="395.5" y="-441.9" font-family="Arial" font-size="14.00" fill="#000000">customer_id </text>
<text text-anchor="start" x="475.622" y="-441.9" font-family="Arial" font-size="14.00" fill="#666666">[integer]</text>
<polygon fill="none" stroke="#000000" points="388.5,-400.5 388.5,-430.5 615.5,-430.5 615.5,-400.5 388.5,-400.5"/>
<text text-anchor="start" x="395.5" y="-411.9" font-family="Arial" font-size="14.00" fill="#000000">order_id </text>
<text text-anchor="start" x="450.7314" y="-411.9" font-family="Arial" font-size="14.00" fill="#666666">[integer]</text>
<polygon fill="none" stroke="#000000" points="388.5,-370.5 388.5,-400.5 615.5,-400.5 615.5,-370.5 388.5,-370.5"/>
<text text-anchor="start" x="395.5" y="-381.9" font-family="Arial" font-size="14.00" fill="#000000">address </text>
<text text-anchor="start" x="449.1816" y="-381.9" font-family="Arial" font-size="14.00" fill="#666666">[varchar]</text>
</g>
<!-- public.address&#45;&gt;public.customers -->
<g id="edge2" class="edge">
<title>public.address:customer_id&#45;&gt;public.customers:id</title>
<path fill="none" stroke="#000000" d="M378.261,-444.4051C341.2866,-435.4492 371.9592,-373.4287 388.5,-328 404.5816,-283.8325 440.4184,-291.1675 456.5,-247 471.1737,-206.6994 499.3889,-150.5 456.5,-150.5"/>
<polygon fill="#000000" stroke="#000000" points="378.5567,-444.4366 388.0215,-449.9745 383.5283,-444.9683 388.5,-445.5 388.5,-445.5 388.5,-445.5 383.5283,-444.9683 388.9785,-441.0255 378.5567,-444.4366 378.5567,-444.4366"/>
<text text-anchor="start" x="395.1675" y="-455.5" font-family="Arial" font-size="10.00" fill="#000000">FOREIGN KEY (customer_id) REFERENCES customers(id)</text>
</g>
</g>
</svg>
