<?xml version="1.0" encoding="UTF-8" standalone="no"?>
<!DOCTYPE svg PUBLIC "-//W3C//DTD SVG 1.1//EN"
 "http://www.w3.org/Graphics/SVG/1.1/DTD/svg11.dtd">
<!-- Generated by graphviz version 2.40.1 (20161225.0304)
 -->
<!-- Title: public.order_details Pages: 1 -->
<svg width="763pt" height="532pt"
 viewBox="0.00 0.00 763.00 532.00" xmlns="http://www.w3.org/2000/svg" xmlns:xlink="http://www.w3.org/1999/xlink">
<g id="graph0" class="graph" transform="scale(1 1) rotate(0) translate(4 528)">
<title>public.order_details</title>
<polygon fill="#ffffff" stroke="transparent" points="-4,4 -4,-528 759,-528 759,4 -4,4"/>
<!-- public.order_details -->
<g id="node1" class="node">
<title>public.order_details</title>
<polygon fill="#efefef" stroke="transparent" points="245,-442.5 245,-477.5 512,-477.5 512,-442.5 245,-442.5"/>
<polygon fill="none" stroke="#000000" points="245,-442.5 245,-477.5 512,-477.5 512,-442.5 245,-442.5"/>
<text text-anchor="start" x="251.8593" y="-455.3" font-family="Arial Bold" font-size="18.00" fill="#000000">public.order_details</text>
<text text-anchor="start" x="407.8869" y="-455.3" font-family="Arial" font-size="14.00" fill="#000000"> </text>
<text text-anchor="start" x="411.7775" y="-455.3" font-family="Arial" font-size="14.00" fill="#666666">[BASE TABLE]</text>
<polygon fill="none" stroke="#000000" points="245,-412.5 245,-442.5 512,-442.5 512,-412.5 245,-412.5"/>
<text text-anchor="start" x="252" y="-423.9" font-family="Arial" font-size="14.00" fill="#000000">order_id </text>
<text text-anchor="start" x="307.2314" y="-423.9" font-family="Arial" font-size="14.00" fill="#666666">[integer]</text>
<polygon fill="none" stroke="#000000" points="245,-382.5 245,-412.5 512,-412.5 512,-382.5 245,-382.5"/>
<text text-anchor="start" x="252" y="-393.9" font-family="Arial" font-size="14.00" fill="#000000">menu_id </text>
<text text-anchor="start" x="309.5708" y="-393.9" font-family="Arial" font-size="14.00" fill="#666666">[integer]</text>
<polygon fill="none" stroke="#000000" points="245,-352.5 245,-382.5 512,-382.5 512,-352.5 245,-352.5"/>
<text text-anchor="start" x="252" y="-363.9" font-family="Arial" font-size="14.00" fill="#000000">quantity </text>
<text text-anchor="start" x="304.9088" y="-363.9" font-family="Arial" font-size="14.00" fill="#666666">[integer]</text>
<polygon fill="none" stroke="#000000" points="245,-322.5 245,-352.5 512,-352.5 512,-322.5 245,-322.5"/>
<text text-anchor="start" x="252" y="-333.9" font-family="Arial" font-size="14.00" fill="#000000">amount </text>
<text text-anchor="start" x="302.5722" y="-333.9" font-family="Arial" font-size="14.00" fill="#666666">[double precision]</text>
<polygon fill="none" stroke="#000000" stroke-width="3" points="243,-321.5 243,-479.5 513,-479.5 513,-321.5 243,-321.5"/>
</g>
<!-- public.orders -->
<g id="node2" class="node">
<title>public.orders</title>
<polygon fill="#efefef" stroke="transparent" points="115,-147.5 115,-182.5 329,-182.5 329,-147.5 115,-147.5"/>
<polygon fill="none" stroke="#000000" points="115,-147.5 115,-182.5 329,-182.5 329,-147.5 115,-147.5"/>
<text text-anchor="start" x="121.867" y="-160.3" font-family="Arial Bold" font-size="18.00" fill="#000000">public.orders</text>
<text text-anchor="start" x="224.8792" y="-160.3" font-family="Arial" font-size="14.00" fill="#000000"> </text>
<text text-anchor="start" x="228.7698" y="-160.3" font-family="Arial" font-size="14.00" fill="#666666">[BASE TABLE]</text>
<polygon fill="none" stroke="#000000" points="115,-117.5 115,-147.5 329,-147.5 329,-117.5 115,-117.5"/>
<text text-anchor="start" x="122" y="-128.9" font-family="Arial" font-size="14.00" fill="#000000">id </text>
<text text-anchor="start" x="136.7798" y="-128.9" font-family="Arial" font-size="14.00" fill="#666666">[integer]</text>
<polygon fill="none" stroke="#000000" points="115,-87.5 115,-117.5 329,-117.5 329,-87.5 115,-87.5"/>
<text text-anchor="start" x="122" y="-98.9" font-family="Arial" font-size="14.00" fill="#000000">datetime </text>
<text text-anchor="start" x="179.5694" y="-98.9" font-family="Arial" font-size="14.00" fill="#666666">[date]</text>
<polygon fill="none" stroke="#000000" points="115,-57.5 115,-87.5 329,-87.5 329,-57.5 115,-57.5"/>
<text text-anchor="start" x="122" y="-68.9" font-family="Arial" font-size="14.00" fill="#000000">status </text>
<text text-anchor="start" x="163.237" y="-68.9" font-family="Arial" font-size="14.00" fill="#666666">[integer]</text>
</g>
<!-- public.order_details&#45;&gt;public.orders -->
<g id="edge1" class="edge">
<title>public.order_details:order_id&#45;&gt;public.orders:id</title>
<path fill="none" stroke="#000000" d="M234.9153,-426.6933C181.8354,-417.5163 213.9904,-332.1049 245,-277 266.4193,-238.9373 307.5807,-264.0627 329,-226 349.3796,-189.7849 370.5556,-132.5 329,-132.5"/>
<polygon fill="#000000" stroke="#000000" points="235.0318,-426.7026 244.6412,-431.9857 240.0159,-427.1013 245,-427.5 245,-427.5 245,-427.5 240.0159,-427.1013 245.3588,-423.0143 235.0318,-426.7026 235.0318,-426.7026"/>
<text text-anchor="start" x="7.4465" y="-437.5" font-family="Arial" font-size="10.00" fill="#000000">FOREIGN KEY (order_id) REFERENCES orders(id)</text>
</g>
<!-- public.menu -->
<g id="node3" class="node">
<title>public.menu</title>
<polygon fill="#efefef" stroke="transparent" points="433,-162.5 433,-197.5 641,-197.5 641,-162.5 433,-162.5"/>
<polygon fill="none" stroke="#000000" points="433,-162.5 433,-197.5 641,-197.5 641,-162.5 433,-162.5"/>
<text text-anchor="start" x="439.8631" y="-175.3" font-family="Arial Bold" font-size="18.00" fill="#000000">public.menu</text>
<text text-anchor="start" x="536.8831" y="-175.3" font-family="Arial" font-size="14.00" fill="#000000"> </text>
<text text-anchor="start" x="540.7737" y="-175.3" font-family="Arial" font-size="14.00" fill="#666666">[BASE TABLE]</text>
<polygon fill="none" stroke="#000000" points="433,-132.5 433,-162.5 641,-162.5 641,-132.5 433,-132.5"/>
<text text-anchor="start" x="440" y="-143.9" font-family="Arial" font-size="14.00" fill="#000000">id </text>
<text text-anchor="start" x="454.7798" y="-143.9" font-family="Arial" font-size="14.00" fill="#666666">[integer]</text>
<polygon fill="none" stroke="#000000" points="433,-102.5 433,-132.5 641,-132.5 641,-102.5 433,-102.5"/>
<text text-anchor="start" x="440" y="-113.9" font-family="Arial" font-size="14.00" fill="#000000">name </text>
<text text-anchor="start" x="478.899" y="-113.9" font-family="Arial" font-size="14.00" fill="#666666">[varchar]</text>
<polygon fill="none" stroke="#000000" points="433,-72.5 433,-102.5 641,-102.5 641,-72.5 433,-72.5"/>
<text text-anchor="start" x="440" y="-83.9" font-family="Arial" font-size="14.00" fill="#000000">price </text>
<text text-anchor="start" x="474.223" y="-83.9" font-family="Arial" font-size="14.00" fill="#666666">[double precision]</text>
<polygon fill="none" stroke="#000000" points="433,-42.5 433,-72.5 641,-72.5 641,-42.5 433,-42.5"/>
<text text-anchor="start" x="440" y="-53.9" font-family="Arial" font-size="14.00" fill="#000000">description </text>
<text text-anchor="start" x="511.568" y="-53.9" font-family="Arial" font-size="14.00" fill="#666666">[varchar]</text>
</g>
<!-- public.order_details&#45;&gt;public.menu -->
<g id="edge2" class="edge">
<title>public.order_details:menu_id&#45;&gt;public.menu:id</title>
<path fill="none" stroke="#000000" d="M522.1636,-396.4176C562.0769,-387.0391 538.9356,-318.8749 512,-277 491.1262,-244.5489 453.8738,-273.4511 433,-241 410.5191,-206.0504 391.4444,-147.5 433,-147.5"/>
<polygon fill="#000000" stroke="#000000" points="521.9438,-396.441 511.5234,-393.0253 516.9719,-396.9705 512,-397.5 512,-397.5 512,-397.5 516.9719,-396.9705 512.4766,-401.9747 521.9438,-396.441 521.9438,-396.441"/>
<text text-anchor="start" x="519.2755" y="-407.5" font-family="Arial" font-size="10.00" fill="#000000">FOREIGN KEY (menu_id) REFERENCES menu(id)</text>
</g>
</g>
</svg>
