<?xml version="1.0" encoding="UTF-8" standalone="no"?>
<!DOCTYPE svg PUBLIC "-//W3C//DTD SVG 1.1//EN"
 "http://www.w3.org/Graphics/SVG/1.1/DTD/svg11.dtd">
<!-- Generated by graphviz version 2.40.1 (20161225.0304)
 -->
<!-- Title: public.menu Pages: 1 -->
<svg width="562pt" height="532pt"
 viewBox="0.00 0.00 561.50 532.00" xmlns="http://www.w3.org/2000/svg" xmlns:xlink="http://www.w3.org/1999/xlink">
<g id="graph0" class="graph" transform="scale(1 1) rotate(0) translate(4 528)">
<title>public.menu</title>
<polygon fill="#ffffff" stroke="transparent" points="-4,4 -4,-528 557.5,-528 557.5,4 -4,4"/>
<!-- public.menu -->
<g id="node1" class="node">
<title>public.menu</title>
<polygon fill="#efefef" stroke="transparent" points="73.5,-165.5 73.5,-200.5 281.5,-200.5 281.5,-165.5 73.5,-165.5"/>
<polygon fill="none" stroke="#000000" points="73.5,-165.5 73.5,-200.5 281.5,-200.5 281.5,-165.5 73.5,-165.5"/>
<text text-anchor="start" x="80.3631" y="-178.3" font-family="Arial Bold" font-size="18.00" fill="#000000">public.menu</text>
<text text-anchor="start" x="177.3831" y="-178.3" font-family="Arial" font-size="14.00" fill="#000000"> </text>
<text text-anchor="start" x="181.2737" y="-178.3" font-family="Arial" font-size="14.00" fill="#666666">[BASE TABLE]</text>
<polygon fill="none" stroke="#000000" points="73.5,-135.5 73.5,-165.5 281.5,-165.5 281.5,-135.5 73.5,-135.5"/>
<text text-anchor="start" x="80.5" y="-146.9" font-family="Arial" font-size="14.00" fill="#000000">id </text>
<text text-anchor="start" x="95.2798" y="-146.9" font-family="Arial" font-size="14.00" fill="#666666">[integer]</text>
<polygon fill="none" stroke="#000000" points="73.5,-105.5 73.5,-135.5 281.5,-135.5 281.5,-105.5 73.5,-105.5"/>
<text text-anchor="start" x="80.5" y="-116.9" font-family="Arial" font-size="14.00" fill="#000000">name </text>
<text text-anchor="start" x="119.399" y="-116.9" font-family="Arial" font-size="14.00" fill="#666666">[varchar]</text>
<polygon fill="none" stroke="#000000" points="73.5,-75.5 73.5,-105.5 281.5,-105.5 281.5,-75.5 73.5,-75.5"/>
<text text-anchor="start" x="80.5" y="-86.9" font-family="Arial" font-size="14.00" fill="#000000">price </text>
<text text-anchor="start" x="114.723" y="-86.9" font-family="Arial" font-size="14.00" fill="#666666">[double precision]</text>
<polygon fill="none" stroke="#000000" points="73.5,-45.5 73.5,-75.5 281.5,-75.5 281.5,-45.5 73.5,-45.5"/>
<text text-anchor="start" x="80.5" y="-56.9" font-family="Arial" font-size="14.00" fill="#000000">description </text>
<text text-anchor="start" x="152.068" y="-56.9" font-family="Arial" font-size="14.00" fill="#666666">[varchar]</text>
<polygon fill="none" stroke="#000000" stroke-width="3" points="72,-44.5 72,-202.5 283,-202.5 283,-44.5 72,-44.5"/>
</g>
<!-- public.order_details -->
<g id="node2" class="node">
<title>public.order_details</title>
<polygon fill="#efefef" stroke="transparent" points="43.5,-445.5 43.5,-480.5 310.5,-480.5 310.5,-445.5 43.5,-445.5"/>
<polygon fill="none" stroke="#000000" points="43.5,-445.5 43.5,-480.5 310.5,-480.5 310.5,-445.5 43.5,-445.5"/>
<text text-anchor="start" x="50.3593" y="-458.3" font-family="Arial Bold" font-size="18.00" fill="#000000">public.order_details</text>
<text text-anchor="start" x="206.3869" y="-458.3" font-family="Arial" font-size="14.00" fill="#000000"> </text>
<text text-anchor="start" x="210.2775" y="-458.3" font-family="Arial" font-size="14.00" fill="#666666">[BASE TABLE]</text>
<polygon fill="none" stroke="#000000" points="43.5,-415.5 43.5,-445.5 310.5,-445.5 310.5,-415.5 43.5,-415.5"/>
<text text-anchor="start" x="50.5" y="-426.9" font-family="Arial" font-size="14.00" fill="#000000">order_id </text>
<text text-anchor="start" x="105.7314" y="-426.9" font-family="Arial" font-size="14.00" fill="#666666">[integer]</text>
<polygon fill="none" stroke="#000000" points="43.5,-385.5 43.5,-415.5 310.5,-415.5 310.5,-385.5 43.5,-385.5"/>
<text text-anchor="start" x="50.5" y="-396.9" font-family="Arial" font-size="14.00" fill="#000000">menu_id </text>
<text text-anchor="start" x="108.0708" y="-396.9" font-family="Arial" font-size="14.00" fill="#666666">[integer]</text>
<polygon fill="none" stroke="#000000" points="43.5,-355.5 43.5,-385.5 310.5,-385.5 310.5,-355.5 43.5,-355.5"/>
<text text-anchor="start" x="50.5" y="-366.9" font-family="Arial" font-size="14.00" fill="#000000">quantity </text>
<text text-anchor="start" x="103.4088" y="-366.9" font-family="Arial" font-size="14.00" fill="#666666">[integer]</text>
<polygon fill="none" stroke="#000000" points="43.5,-325.5 43.5,-355.5 310.5,-355.5 310.5,-325.5 43.5,-325.5"/>
<text text-anchor="start" x="50.5" y="-336.9" font-family="Arial" font-size="14.00" fill="#000000">amount </text>
<text text-anchor="start" x="101.0722" y="-336.9" font-family="Arial" font-size="14.00" fill="#666666">[double precision]</text>
</g>
<!-- public.order_details&#45;&gt;public.menu -->
<g id="edge1" class="edge">
<title>public.order_details:menu_id&#45;&gt;public.menu:id</title>
<path fill="none" stroke="#000000" d="M320.4904,-399.385C360.0871,-389.735 342.1477,-319.8179 310.5,-283 241.0506,-202.2047 142.9494,-327.7953 73.5,-247 45.5428,-214.4754 30.6111,-150.5 73.5,-150.5"/>
<polygon fill="#000000" stroke="#000000" points="320.4383,-399.3908 310.0008,-396.0278 315.4692,-399.9454 310.5,-400.5 310.5,-400.5 310.5,-400.5 315.4692,-399.9454 310.9992,-404.9722 320.4383,-399.3908 320.4383,-399.3908"/>
<text text-anchor="start" x="317.7755" y="-410.5" font-family="Arial" font-size="10.00" fill="#000000">FOREIGN KEY (menu_id) REFERENCES menu(id)</text>
</g>
</g>
</svg>
