<?xml version="1.0" encoding="UTF-8" standalone="no"?>
<!DOCTYPE svg PUBLIC "-//W3C//DTD SVG 1.1//EN"
 "http://www.w3.org/Graphics/SVG/1.1/DTD/svg11.dtd">
<!-- Generated by graphviz version 2.40.1 (20161225.0304)
 -->
<!-- Title: public.address Pages: 1 -->
<svg width="760pt" height="502pt"
 viewBox="0.00 0.00 760.00 502.00" xmlns="http://www.w3.org/2000/svg" xmlns:xlink="http://www.w3.org/1999/xlink">
<g id="graph0" class="graph" transform="scale(1 1) rotate(0) translate(4 498)">
<title>public.address</title>
<polygon fill="#ffffff" stroke="transparent" points="-4,4 -4,-498 756,-498 756,4 -4,4"/>
<!-- public.address -->
<g id="node1" class="node">
<title>public.address</title>
<polygon fill="#efefef" stroke="transparent" points="280,-412.5 280,-447.5 507,-447.5 507,-412.5 280,-412.5"/>
<polygon fill="none" stroke="#000000" points="280,-412.5 280,-447.5 507,-447.5 507,-412.5 280,-412.5"/>
<text text-anchor="start" x="286.86" y="-425.3" font-family="Arial Bold" font-size="18.00" fill="#000000">public.address</text>
<text text-anchor="start" x="402.8862" y="-425.3" font-family="Arial" font-size="14.00" fill="#000000"> </text>
<text text-anchor="start" x="406.7768" y="-425.3" font-family="Arial" font-size="14.00" fill="#666666">[BASE TABLE]</text>
<polygon fill="none" stroke="#000000" points="280,-382.5 280,-412.5 507,-412.5 507,-382.5 280,-382.5"/>
<text text-anchor="start" x="287" y="-393.9" font-family="Arial" font-size="14.00" fill="#000000">customer_id </text>
<text text-anchor="start" x="367.122" y="-393.9" font-family="Arial" font-size="14.00" fill="#666666">[integer]</text>
<polygon fill="none" stroke="#000000" points="280,-352.5 280,-382.5 507,-382.5 507,-352.5 280,-352.5"/>
<text text-anchor="start" x="287" y="-363.9" font-family="Arial" font-size="14.00" fill="#000000">order_id </text>
<text text-anchor="start" x="342.2314" y="-363.9" font-family="Arial" font-size="14.00" fill="#666666">[integer]</text>
<polygon fill="none" stroke="#000000" points="280,-322.5 280,-352.5 507,-352.5 507,-322.5 280,-322.5"/>
<text text-anchor="start" x="287" y="-333.9" font-family="Arial" font-size="14.00" fill="#000000">address </text>
<text text-anchor="start" x="340.6816" y="-333.9" font-family="Arial" font-size="14.00" fill="#666666">[varchar]</text>
<polygon fill="none" stroke="#000000" stroke-width="3" points="278,-321.5 278,-449.5 508,-449.5 508,-321.5 278,-321.5"/>
</g>
<!-- public.customers -->
<g id="node2" class="node">
<title>public.customers</title>
<polygon fill="#efefef" stroke="transparent" points="104,-162.5 104,-197.5 350,-197.5 350,-162.5 104,-162.5"/>
<polygon fill="none" stroke="#000000" points="104,-162.5 104,-197.5 350,-197.5 350,-162.5 104,-162.5"/>
<text text-anchor="start" x="110.8659" y="-175.3" font-family="Arial Bold" font-size="18.00" fill="#000000">public.customers</text>
<text text-anchor="start" x="245.8803" y="-175.3" font-family="Arial" font-size="14.00" fill="#000000"> </text>
<text text-anchor="start" x="249.7709" y="-175.3" font-family="Arial" font-size="14.00" fill="#666666">[BASE TABLE]</text>
<polygon fill="none" stroke="#000000" points="104,-132.5 104,-162.5 350,-162.5 350,-132.5 104,-132.5"/>
<text text-anchor="start" x="111" y="-143.9" font-family="Arial" font-size="14.00" fill="#000000">id </text>
<text text-anchor="start" x="125.7798" y="-143.9" font-family="Arial" font-size="14.00" fill="#666666">[integer]</text>
<polygon fill="none" stroke="#000000" points="104,-102.5 104,-132.5 350,-132.5 350,-102.5 104,-102.5"/>
<text text-anchor="start" x="111" y="-113.9" font-family="Arial" font-size="14.00" fill="#000000">full_name </text>
<text text-anchor="start" x="175.568" y="-113.9" font-family="Arial" font-size="14.00" fill="#666666">[varchar]</text>
<polygon fill="none" stroke="#000000" points="104,-72.5 104,-102.5 350,-102.5 350,-72.5 104,-72.5"/>
<text text-anchor="start" x="111" y="-83.9" font-family="Arial" font-size="14.00" fill="#000000">email </text>
<text text-anchor="start" x="148.3296" y="-83.9" font-family="Arial" font-size="14.00" fill="#666666">[varchar]</text>
<polygon fill="none" stroke="#000000" points="104,-42.5 104,-72.5 350,-72.5 350,-42.5 104,-42.5"/>
<text text-anchor="start" x="111" y="-53.9" font-family="Arial" font-size="14.00" fill="#000000">phone </text>
<text text-anchor="start" x="153.8036" y="-53.9" font-family="Arial" font-size="14.00" fill="#666666">[varchar]</text>
</g>
<!-- public.address&#45;&gt;public.customers -->
<g id="edge1" class="edge">
<title>public.address:customer_id&#45;&gt;public.customers:id</title>
<path fill="none" stroke="#000000" d="M269.8512,-396.4269C230.0638,-387.1272 254.0649,-319.5019 280,-277 298.223,-247.1366 331.777,-270.8634 350,-241 371.6459,-205.5272 391.5556,-147.5 350,-147.5"/>
<polygon fill="#000000" stroke="#000000" points="270.0554,-396.4484 279.5268,-401.9751 275.0277,-396.9742 280,-397.5 280,-397.5 280,-397.5 275.0277,-396.9742 280.4732,-393.0249 270.0554,-396.4484 270.0554,-396.4484"/>
<text text-anchor="start" x="6.6675" y="-407.5" font-family="Arial" font-size="10.00" fill="#000000">FOREIGN KEY (customer_id) REFERENCES customers(id)</text>
</g>
<!-- public.orders -->
<g id="node3" class="node">
<title>public.orders</title>
<polygon fill="#efefef" stroke="transparent" points="454,-147.5 454,-182.5 668,-182.5 668,-147.5 454,-147.5"/>
<polygon fill="none" stroke="#000000" points="454,-147.5 454,-182.5 668,-182.5 668,-147.5 454,-147.5"/>
<text text-anchor="start" x="460.867" y="-160.3" font-family="Arial Bold" font-size="18.00" fill="#000000">public.orders</text>
<text text-anchor="start" x="563.8792" y="-160.3" font-family="Arial" font-size="14.00" fill="#000000"> </text>
<text text-anchor="start" x="567.7698" y="-160.3" font-family="Arial" font-size="14.00" fill="#666666">[BASE TABLE]</text>
<polygon fill="none" stroke="#000000" points="454,-117.5 454,-147.5 668,-147.5 668,-117.5 454,-117.5"/>
<text text-anchor="start" x="461" y="-128.9" font-family="Arial" font-size="14.00" fill="#000000">id </text>
<text text-anchor="start" x="475.7798" y="-128.9" font-family="Arial" font-size="14.00" fill="#666666">[integer]</text>
<polygon fill="none" stroke="#000000" points="454,-87.5 454,-117.5 668,-117.5 668,-87.5 454,-87.5"/>
<text text-anchor="start" x="461" y="-98.9" font-family="Arial" font-size="14.00" fill="#000000">datetime </text>
<text text-anchor="start" x="518.5694" y="-98.9" font-family="Arial" font-size="14.00" fill="#666666">[date]</text>
<polygon fill="none" stroke="#000000" points="454,-57.5 454,-87.5 668,-87.5 668,-57.5 454,-57.5"/>
<text text-anchor="start" x="461" y="-68.9" font-family="Arial" font-size="14.00" fill="#000000">status </text>
<text text-anchor="start" x="502.237" y="-68.9" font-family="Arial" font-size="14.00" fill="#666666">[integer]</text>
</g>
<!-- public.address&#45;&gt;public.orders -->
<g id="edge2" class="edge">
<title>public.address:order_id&#45;&gt;public.orders:id</title>
<path fill="none" stroke="#000000" d="M517.0013,-366.0348C542.5255,-357.21 521.2109,-310.3965 507,-277 494.2003,-246.92 466.7997,-256.08 454,-226 437.729,-187.7623 412.4444,-132.5 454,-132.5"/>
<polygon fill="#000000" stroke="#000000" points="516.8944,-366.0504 506.3477,-363.0475 511.9472,-366.7752 507,-367.5 507,-367.5 507,-367.5 511.9472,-366.7752 507.6523,-371.9525 516.8944,-366.0504 516.8944,-366.0504"/>
<text text-anchor="start" x="514.4465" y="-377.5" font-family="Arial" font-size="10.00" fill="#000000">FOREIGN KEY (order_id) REFERENCES orders(id)</text>
</g>
</g>
</svg>
