<?xml version="1.0" encoding="UTF-8" standalone="no"?>
<!DOCTYPE svg PUBLIC "-//W3C//DTD SVG 1.1//EN"
 "http://www.w3.org/Graphics/SVG/1.1/DTD/svg11.dtd">
<!-- Generated by graphviz version 2.40.1 (20161225.0304)
 -->
<!-- Title: public.orders Pages: 1 -->
<svg width="1037pt" height="562pt"
 viewBox="0.00 0.00 1037.00 562.00" xmlns="http://www.w3.org/2000/svg" xmlns:xlink="http://www.w3.org/1999/xlink">
<g id="graph0" class="graph" transform="scale(1 1) rotate(0) translate(4 558)">
<title>public.orders</title>
<polygon fill="#ffffff" stroke="transparent" points="-4,4 -4,-558 1033,-558 1033,4 -4,4"/>
<!-- public.orders -->
<g id="node1" class="node">
<title>public.orders</title>
<polygon fill="#efefef" stroke="transparent" points="395.5,-135.5 395.5,-170.5 609.5,-170.5 609.5,-135.5 395.5,-135.5"/>
<polygon fill="none" stroke="#000000" points="395.5,-135.5 395.5,-170.5 609.5,-170.5 609.5,-135.5 395.5,-135.5"/>
<text text-anchor="start" x="402.367" y="-148.3" font-family="Arial Bold" font-size="18.00" fill="#000000">public.orders</text>
<text text-anchor="start" x="505.3792" y="-148.3" font-family="Arial" font-size="14.00" fill="#000000"> </text>
<text text-anchor="start" x="509.2698" y="-148.3" font-family="Arial" font-size="14.00" fill="#666666">[BASE TABLE]</text>
<polygon fill="none" stroke="#000000" points="395.5,-105.5 395.5,-135.5 609.5,-135.5 609.5,-105.5 395.5,-105.5"/>
<text text-anchor="start" x="402.5" y="-116.9" font-family="Arial" font-size="14.00" fill="#000000">id </text>
<text text-anchor="start" x="417.2798" y="-116.9" font-family="Arial" font-size="14.00" fill="#666666">[integer]</text>
<polygon fill="none" stroke="#000000" points="395.5,-75.5 395.5,-105.5 609.5,-105.5 609.5,-75.5 395.5,-75.5"/>
<text text-anchor="start" x="402.5" y="-86.9" font-family="Arial" font-size="14.00" fill="#000000">datetime </text>
<text text-anchor="start" x="460.0694" y="-86.9" font-family="Arial" font-size="14.00" fill="#666666">[date]</text>
<polygon fill="none" stroke="#000000" points="395.5,-45.5 395.5,-75.5 609.5,-75.5 609.5,-45.5 395.5,-45.5"/>
<text text-anchor="start" x="402.5" y="-56.9" font-family="Arial" font-size="14.00" fill="#000000">status </text>
<text text-anchor="start" x="443.737" y="-56.9" font-family="Arial" font-size="14.00" fill="#666666">[integer]</text>
<polygon fill="none" stroke="#000000" stroke-width="3" points="394,-44.5 394,-172.5 611,-172.5 611,-44.5 394,-44.5"/>
</g>
<!-- public.payments -->
<g id="node2" class="node">
<title>public.payments</title>
<polygon fill="#efefef" stroke="transparent" points="43.5,-475.5 43.5,-510.5 284.5,-510.5 284.5,-475.5 43.5,-475.5"/>
<polygon fill="none" stroke="#000000" points="43.5,-475.5 43.5,-510.5 284.5,-510.5 284.5,-475.5 43.5,-475.5"/>
<text text-anchor="start" x="50.3589" y="-488.3" font-family="Arial Bold" font-size="18.00" fill="#000000">public.payments</text>
<text text-anchor="start" x="180.3873" y="-488.3" font-family="Arial" font-size="14.00" fill="#000000"> </text>
<text text-anchor="start" x="184.2779" y="-488.3" font-family="Arial" font-size="14.00" fill="#666666">[BASE TABLE]</text>
<polygon fill="none" stroke="#000000" points="43.5,-445.5 43.5,-475.5 284.5,-475.5 284.5,-445.5 43.5,-445.5"/>
<text text-anchor="start" x="50.5" y="-456.9" font-family="Arial" font-size="14.00" fill="#000000">id </text>
<text text-anchor="start" x="65.2798" y="-456.9" font-family="Arial" font-size="14.00" fill="#666666">[integer]</text>
<polygon fill="none" stroke="#000000" points="43.5,-415.5 43.5,-445.5 284.5,-445.5 284.5,-415.5 43.5,-415.5"/>
<text text-anchor="start" x="50.5" y="-426.9" font-family="Arial" font-size="14.00" fill="#000000">amount </text>
<text text-anchor="start" x="101.0722" y="-426.9" font-family="Arial" font-size="14.00" fill="#666666">[double precision]</text>
<polygon fill="none" stroke="#000000" points="43.5,-385.5 43.5,-415.5 284.5,-415.5 284.5,-385.5 43.5,-385.5"/>
<text text-anchor="start" x="50.5" y="-396.9" font-family="Arial" font-size="14.00" fill="#000000">datetime </text>
<text text-anchor="start" x="108.0694" y="-396.9" font-family="Arial" font-size="14.00" fill="#666666">[date]</text>
<polygon fill="none" stroke="#000000" points="43.5,-355.5 43.5,-385.5 284.5,-385.5 284.5,-355.5 43.5,-355.5"/>
<text text-anchor="start" x="50.5" y="-366.9" font-family="Arial" font-size="14.00" fill="#000000">method </text>
<text text-anchor="start" x="101.0722" y="-366.9" font-family="Arial" font-size="14.00" fill="#666666">[integer]</text>
<polygon fill="none" stroke="#000000" points="43.5,-325.5 43.5,-355.5 284.5,-355.5 284.5,-325.5 43.5,-325.5"/>
<text text-anchor="start" x="50.5" y="-336.9" font-family="Arial" font-size="14.00" fill="#000000">order_id </text>
<text text-anchor="start" x="105.7314" y="-336.9" font-family="Arial" font-size="14.00" fill="#666666">[integer]</text>
<polygon fill="none" stroke="#000000" points="43.5,-295.5 43.5,-325.5 284.5,-325.5 284.5,-295.5 43.5,-295.5"/>
<text text-anchor="start" x="50.5" y="-306.9" font-family="Arial" font-size="14.00" fill="#000000">customer_id </text>
<text text-anchor="start" x="130.622" y="-306.9" font-family="Arial" font-size="14.00" fill="#666666">[integer]</text>
</g>
<!-- public.payments&#45;&gt;public.orders -->
<g id="edge1" class="edge">
<title>public.payments:order_id&#45;&gt;public.orders:id</title>
<path fill="none" stroke="#000000" d="M294.4528,-337.876C339.6715,-313.0546 344.2702,-120.5 395.5,-120.5"/>
<polygon fill="#000000" stroke="#000000" points="294.1696,-337.9506 283.3528,-336.1487 289.3348,-339.2253 284.5,-340.5 284.5,-340.5 284.5,-340.5 289.3348,-339.2253 285.6472,-344.8513 294.1696,-337.9506 294.1696,-337.9506"/>
<text text-anchor="start" x="291.9465" y="-350.5" font-family="Arial" font-size="10.00" fill="#000000">FOREIGN KEY (order_id) REFERENCES orders(id)</text>
</g>
<!-- public.address -->
<g id="node3" class="node">
<title>public.address</title>
<polygon fill="#efefef" stroke="transparent" points="388.5,-430.5 388.5,-465.5 615.5,-465.5 615.5,-430.5 388.5,-430.5"/>
<polygon fill="none" stroke="#000000" points="388.5,-430.5 388.5,-465.5 615.5,-465.5 615.5,-430.5 388.5,-430.5"/>
<text text-anchor="start" x="395.36" y="-443.3" font-family="Arial Bold" font-size="18.00" fill="#000000">public.address</text>
<text text-anchor="start" x="511.3862" y="-443.3" font-family="Arial" font-size="14.00" fill="#000000"> </text>
<text text-anchor="start" x="515.2768" y="-443.3" font-family="Arial" font-size="14.00" fill="#666666">[BASE TABLE]</text>
<polygon fill="none" stroke="#000000" points="388.5,-400.5 388.5,-430.5 615.5,-430.5 615.5,-400.5 388.5,-400.5"/>
<text text-anchor="start" x="395.5" y="-411.9" font-family="Arial" font-size="14.00" fill="#000000">customer_id </text>
<text text-anchor="start" x="475.622" y="-411.9" font-family="Arial" font-size="14.00" fill="#666666">[integer]</text>
<polygon fill="none" stroke="#000000" points="388.5,-370.5 388.5,-400.5 615.5,-400.5 615.5,-370.5 388.5,-370.5"/>
<text text-anchor="start" x="395.5" y="-381.9" font-family="Arial" font-size="14.00" fill="#000000">order_id </text>
<text text-anchor="start" x="450.7314" y="-381.9" font-family="Arial" font-size="14.00" fill="#666666">[integer]</text>
<polygon fill="none" stroke="#000000" points="388.5,-340.5 388.5,-370.5 615.5,-370.5 615.5,-340.5 388.5,-340.5"/>
<text text-anchor="start" x="395.5" y="-351.9" font-family="Arial" font-size="14.00" fill="#000000">address </text>
<text text-anchor="start" x="449.1816" y="-351.9" font-family="Arial" font-size="14.00" fill="#666666">[varchar]</text>
</g>
<!-- public.address&#45;&gt;public.orders -->
<g id="edge2" class="edge">
<title>public.address:order_id&#45;&gt;public.orders:id</title>
<path fill="none" stroke="#000000" d="M625.6829,-383.8625C650.9506,-374.4502 635.4871,-326.6577 615.5,-298 555.8951,-212.538 455.1049,-302.462 395.5,-217 370.9652,-181.8219 352.6111,-120.5 395.5,-120.5"/>
<polygon fill="#000000" stroke="#000000" points="625.3732,-383.9122 614.7855,-381.0571 620.4366,-384.7061 615.5,-385.5 615.5,-385.5 615.5,-385.5 620.4366,-384.7061 616.2145,-389.9429 625.3732,-383.9122 625.3732,-383.9122"/>
<text text-anchor="start" x="622.9465" y="-395.5" font-family="Arial" font-size="10.00" fill="#000000">FOREIGN KEY (order_id) REFERENCES orders(id)</text>
</g>
<!-- public.order_details -->
<g id="node4" class="node">
<title>public.order_details</title>
<polygon fill="#efefef" stroke="transparent" points="719.5,-445.5 719.5,-480.5 986.5,-480.5 986.5,-445.5 719.5,-445.5"/>
<polygon fill="none" stroke="#000000" points="719.5,-445.5 719.5,-480.5 986.5,-480.5 986.5,-445.5 719.5,-445.5"/>
<text text-anchor="start" x="726.3593" y="-458.3" font-family="Arial Bold" font-size="18.00" fill="#000000">public.order_details</text>
<text text-anchor="start" x="882.3869" y="-458.3" font-family="Arial" font-size="14.00" fill="#000000"> </text>
<text text-anchor="start" x="886.2775" y="-458.3" font-family="Arial" font-size="14.00" fill="#666666">[BASE TABLE]</text>
<polygon fill="none" stroke="#000000" points="719.5,-415.5 719.5,-445.5 986.5,-445.5 986.5,-415.5 719.5,-415.5"/>
<text text-anchor="start" x="726.5" y="-426.9" font-family="Arial" font-size="14.00" fill="#000000">order_id </text>
<text text-anchor="start" x="781.7314" y="-426.9" font-family="Arial" font-size="14.00" fill="#666666">[integer]</text>
<polygon fill="none" stroke="#000000" points="719.5,-385.5 719.5,-415.5 986.5,-415.5 986.5,-385.5 719.5,-385.5"/>
<text text-anchor="start" x="726.5" y="-396.9" font-family="Arial" font-size="14.00" fill="#000000">menu_id </text>
<text text-anchor="start" x="784.0708" y="-396.9" font-family="Arial" font-size="14.00" fill="#666666">[integer]</text>
<polygon fill="none" stroke="#000000" points="719.5,-355.5 719.5,-385.5 986.5,-385.5 986.5,-355.5 719.5,-355.5"/>
<text text-anchor="start" x="726.5" y="-366.9" font-family="Arial" font-size="14.00" fill="#000000">quantity </text>
<text text-anchor="start" x="779.4088" y="-366.9" font-family="Arial" font-size="14.00" fill="#666666">[integer]</text>
<polygon fill="none" stroke="#000000" points="719.5,-325.5 719.5,-355.5 986.5,-355.5 986.5,-325.5 719.5,-325.5"/>
<text text-anchor="start" x="726.5" y="-336.9" font-family="Arial" font-size="14.00" fill="#000000">amount </text>
<text text-anchor="start" x="777.0722" y="-336.9" font-family="Arial" font-size="14.00" fill="#666666">[double precision]</text>
</g>
<!-- public.order_details&#45;&gt;public.orders -->
<g id="edge3" class="edge">
<title>public.order_details:order_id&#45;&gt;public.orders:id</title>
<path fill="none" stroke="#000000" d="M709.2517,-429.9043C642.359,-421.54 694.3327,-326.7841 667.5,-253 645.53,-192.5871 673.7837,-120.5 609.5,-120.5"/>
<polygon fill="#000000" stroke="#000000" points="709.5169,-429.9196 719.2388,-434.9924 714.5084,-430.2098 719.5,-430.5 719.5,-430.5 719.5,-430.5 714.5084,-430.2098 719.7612,-426.0076 709.5169,-429.9196 709.5169,-429.9196"/>
<text text-anchor="start" x="726.9465" y="-440.5" font-family="Arial" font-size="10.00" fill="#000000">FOREIGN KEY (order_id) REFERENCES orders(id)</text>
</g>
</g>
</svg>
