<?xml version="1.0" encoding="UTF-8" standalone="no"?>
<!DOCTYPE svg PUBLIC "-//W3C//DTD SVG 1.1//EN"
 "http://www.w3.org/Graphics/SVG/1.1/DTD/svg11.dtd">
<!-- Generated by graphviz version 2.40.1 (20161225.0304)
 -->
<!-- Title: public.payments Pages: 1 -->
<svg width="774pt" height="592pt"
 viewBox="0.00 0.00 774.00 592.00" xmlns="http://www.w3.org/2000/svg" xmlns:xlink="http://www.w3.org/1999/xlink">
<g id="graph0" class="graph" transform="scale(1 1) rotate(0) translate(4 588)">
<title>public.payments</title>
<polygon fill="#ffffff" stroke="transparent" points="-4,4 -4,-588 770,-588 770,4 -4,4"/>
<!-- public.payments -->
<g id="node1" class="node">
<title>public.payments</title>
<polygon fill="#efefef" stroke="transparent" points="245,-502.5 245,-537.5 486,-537.5 486,-502.5 245,-502.5"/>
<polygon fill="none" stroke="#000000" points="245,-502.5 245,-537.5 486,-537.5 486,-502.5 245,-502.5"/>
<text text-anchor="start" x="251.8589" y="-515.3" font-family="Arial Bold" font-size="18.00" fill="#000000">public.payments</text>
<text text-anchor="start" x="381.8873" y="-515.3" font-family="Arial" font-size="14.00" fill="#000000"> </text>
<text text-anchor="start" x="385.7779" y="-515.3" font-family="Arial" font-size="14.00" fill="#666666">[BASE TABLE]</text>
<polygon fill="none" stroke="#000000" points="245,-472.5 245,-502.5 486,-502.5 486,-472.5 245,-472.5"/>
<text text-anchor="start" x="252" y="-483.9" font-family="Arial" font-size="14.00" fill="#000000">id </text>
<text text-anchor="start" x="266.7798" y="-483.9" font-family="Arial" font-size="14.00" fill="#666666">[integer]</text>
<polygon fill="none" stroke="#000000" points="245,-442.5 245,-472.5 486,-472.5 486,-442.5 245,-442.5"/>
<text text-anchor="start" x="252" y="-453.9" font-family="Arial" font-size="14.00" fill="#000000">amount </text>
<text text-anchor="start" x="302.5722" y="-453.9" font-family="Arial" font-size="14.00" fill="#666666">[double precision]</text>
<polygon fill="none" stroke="#000000" points="245,-412.5 245,-442.5 486,-442.5 486,-412.5 245,-412.5"/>
<text text-anchor="start" x="252" y="-423.9" font-family="Arial" font-size="14.00" fill="#000000">datetime </text>
<text text-anchor="start" x="309.5694" y="-423.9" font-family="Arial" font-size="14.00" fill="#666666">[date]</text>
<polygon fill="none" stroke="#000000" points="245,-382.5 245,-412.5 486,-412.5 486,-382.5 245,-382.5"/>
<text text-anchor="start" x="252" y="-393.9" font-family="Arial" font-size="14.00" fill="#000000">method </text>
<text text-anchor="start" x="302.5722" y="-393.9" font-family="Arial" font-size="14.00" fill="#666666">[integer]</text>
<polygon fill="none" stroke="#000000" points="245,-352.5 245,-382.5 486,-382.5 486,-352.5 245,-352.5"/>
<text text-anchor="start" x="252" y="-363.9" font-family="Arial" font-size="14.00" fill="#000000">order_id </text>
<text text-anchor="start" x="307.2314" y="-363.9" font-family="Arial" font-size="14.00" fill="#666666">[integer]</text>
<polygon fill="none" stroke="#000000" points="245,-322.5 245,-352.5 486,-352.5 486,-322.5 245,-322.5"/>
<text text-anchor="start" x="252" y="-333.9" font-family="Arial" font-size="14.00" fill="#000000">customer_id </text>
<text text-anchor="start" x="332.122" y="-333.9" font-family="Arial" font-size="14.00" fill="#666666">[integer]</text>
<polygon fill="none" stroke="#000000" stroke-width="3" points="243,-321.5 243,-539.5 487,-539.5 487,-321.5 243,-321.5"/>
</g>
<!-- public.orders -->
<g id="node2" class="node">
<title>public.orders</title>
<polygon fill="#efefef" stroke="transparent" points="92,-147.5 92,-182.5 306,-182.5 306,-147.5 92,-147.5"/>
<polygon fill="none" stroke="#000000" points="92,-147.5 92,-182.5 306,-182.5 306,-147.5 92,-147.5"/>
<text text-anchor="start" x="98.867" y="-160.3" font-family="Arial Bold" font-size="18.00" fill="#000000">public.orders</text>
<text text-anchor="start" x="201.8792" y="-160.3" font-family="Arial" font-size="14.00" fill="#000000"> </text>
<text text-anchor="start" x="205.7698" y="-160.3" font-family="Arial" font-size="14.00" fill="#666666">[BASE TABLE]</text>
<polygon fill="none" stroke="#000000" points="92,-117.5 92,-147.5 306,-147.5 306,-117.5 92,-117.5"/>
<text text-anchor="start" x="99" y="-128.9" font-family="Arial" font-size="14.00" fill="#000000">id </text>
<text text-anchor="start" x="113.7798" y="-128.9" font-family="Arial" font-size="14.00" fill="#666666">[integer]</text>
<polygon fill="none" stroke="#000000" points="92,-87.5 92,-117.5 306,-117.5 306,-87.5 92,-87.5"/>
<text text-anchor="start" x="99" y="-98.9" font-family="Arial" font-size="14.00" fill="#000000">datetime </text>
<text text-anchor="start" x="156.5694" y="-98.9" font-family="Arial" font-size="14.00" fill="#666666">[date]</text>
<polygon fill="none" stroke="#000000" points="92,-57.5 92,-87.5 306,-87.5 306,-57.5 92,-57.5"/>
<text text-anchor="start" x="99" y="-68.9" font-family="Arial" font-size="14.00" fill="#000000">status </text>
<text text-anchor="start" x="140.237" y="-68.9" font-family="Arial" font-size="14.00" fill="#666666">[integer]</text>
</g>
<!-- public.payments&#45;&gt;public.orders -->
<g id="edge1" class="edge">
<title>public.payments:order_id&#45;&gt;public.orders:id</title>
<path fill="none" stroke="#000000" d="M234.9656,-366.0201C209.2485,-357.1092 229.6321,-309.8801 245,-277 259.9631,-244.986 291.0369,-258.014 306,-226 323.5957,-188.3535 347.5556,-132.5 306,-132.5"/>
<polygon fill="#000000" stroke="#000000" points="235.107,-366.0408 244.3434,-371.9518 240.0535,-366.7704 245,-367.5 245,-367.5 245,-367.5 240.0535,-366.7704 245.6566,-363.0482 235.107,-366.0408 235.107,-366.0408"/>
<text text-anchor="start" x="7.4465" y="-377.5" font-family="Arial" font-size="10.00" fill="#000000">FOREIGN KEY (order_id) REFERENCES orders(id)</text>
</g>
<!-- public.customers -->
<g id="node3" class="node">
<title>public.customers</title>
<polygon fill="#efefef" stroke="transparent" points="410,-162.5 410,-197.5 656,-197.5 656,-162.5 410,-162.5"/>
<polygon fill="none" stroke="#000000" points="410,-162.5 410,-197.5 656,-197.5 656,-162.5 410,-162.5"/>
<text text-anchor="start" x="416.8659" y="-175.3" font-family="Arial Bold" font-size="18.00" fill="#000000">public.customers</text>
<text text-anchor="start" x="551.8803" y="-175.3" font-family="Arial" font-size="14.00" fill="#000000"> </text>
<text text-anchor="start" x="555.7709" y="-175.3" font-family="Arial" font-size="14.00" fill="#666666">[BASE TABLE]</text>
<polygon fill="none" stroke="#000000" points="410,-132.5 410,-162.5 656,-162.5 656,-132.5 410,-132.5"/>
<text text-anchor="start" x="417" y="-143.9" font-family="Arial" font-size="14.00" fill="#000000">id </text>
<text text-anchor="start" x="431.7798" y="-143.9" font-family="Arial" font-size="14.00" fill="#666666">[integer]</text>
<polygon fill="none" stroke="#000000" points="410,-102.5 410,-132.5 656,-132.5 656,-102.5 410,-102.5"/>
<text text-anchor="start" x="417" y="-113.9" font-family="Arial" font-size="14.00" fill="#000000">full_name </text>
<text text-anchor="start" x="481.568" y="-113.9" font-family="Arial" font-size="14.00" fill="#666666">[varchar]</text>
<polygon fill="none" stroke="#000000" points="410,-72.5 410,-102.5 656,-102.5 656,-72.5 410,-72.5"/>
<text text-anchor="start" x="417" y="-83.9" font-family="Arial" font-size="14.00" fill="#000000">email </text>
<text text-anchor="start" x="454.3296" y="-83.9" font-family="Arial" font-size="14.00" fill="#666666">[varchar]</text>
<polygon fill="none" stroke="#000000" points="410,-42.5 410,-72.5 656,-72.5 656,-42.5 410,-42.5"/>
<text text-anchor="start" x="417" y="-53.9" font-family="Arial" font-size="14.00" fill="#000000">phone </text>
<text text-anchor="start" x="459.8036" y="-53.9" font-family="Arial" font-size="14.00" fill="#666666">[varchar]</text>
</g>
<!-- public.payments&#45;&gt;public.customers -->
<g id="edge2" class="edge">
<title>public.payments:customer_id&#45;&gt;public.customers:id</title>
<path fill="none" stroke="#000000" d="M495.8617,-334.9346C508.9339,-326.0618 498.1321,-296.1712 486,-277 466.0134,-245.4172 429.9866,-272.5828 410,-241 387.7782,-205.8851 368.4444,-147.5 410,-147.5"/>
<polygon fill="#000000" stroke="#000000" points="495.6779,-334.9823 484.867,-333.1449 490.8389,-336.2411 486,-337.5 486,-337.5 486,-337.5 490.8389,-336.2411 487.133,-341.8551 495.6779,-334.9823 495.6779,-334.9823"/>
<text text-anchor="start" x="492.6675" y="-347.5" font-family="Arial" font-size="10.00" fill="#000000">FOREIGN KEY (customer_id) REFERENCES customers(id)</text>
</g>
</g>
</svg>
