<?xml version="1.0" encoding="UTF-8" standalone="no"?>
<!DOCTYPE svg PUBLIC "-//W3C//DTD SVG 1.1//EN"
 "http://www.w3.org/Graphics/SVG/1.1/DTD/svg11.dtd">
<!-- Generated by graphviz version 2.40.1 (20161225.0304)
 -->
<!-- Title: carroteats Pages: 1 -->
<svg width="1244pt" height="586pt"
 viewBox="0.00 0.00 1244.00 586.00" xmlns="http://www.w3.org/2000/svg" xmlns:xlink="http://www.w3.org/1999/xlink">
<g id="graph0" class="graph" transform="scale(1 1) rotate(0) translate(4 582)">
<title>carroteats</title>
<polygon fill="#ffffff" stroke="transparent" points="-4,4 -4,-582 1240,-582 1240,4 -4,4"/>
<!-- public.customers -->
<g id="node1" class="node">
<title>public.customers</title>
<polygon fill="#efefef" stroke="transparent" points="43,-162.5 43,-197.5 289,-197.5 289,-162.5 43,-162.5"/>
<polygon fill="none" stroke="#000000" points="43,-162.5 43,-197.5 289,-197.5 289,-162.5 43,-162.5"/>
<text text-anchor="start" x="49.8659" y="-175.3" font-family="Arial Bold" font-size="18.00" fill="#000000">public.customers</text>
<text text-anchor="start" x="184.8803" y="-175.3" font-family="Arial" font-size="14.00" fill="#000000"> </text>
<text text-anchor="start" x="188.7709" y="-175.3" font-family="Arial" font-size="14.00" fill="#666666">[BASE TABLE]</text>
<polygon fill="none" stroke="#000000" points="43,-132.5 43,-162.5 289,-162.5 289,-132.5 43,-132.5"/>
<text text-anchor="start" x="50" y="-143.9" font-family="Arial" font-size="14.00" fill="#000000">id </text>
<text text-anchor="start" x="64.7798" y="-143.9" font-family="Arial" font-size="14.00" fill="#666666">[integer]</text>
<polygon fill="none" stroke="#000000" points="43,-102.5 43,-132.5 289,-132.5 289,-102.5 43,-102.5"/>
<text text-anchor="start" x="50" y="-113.9" font-family="Arial" font-size="14.00" fill="#000000">full_name </text>
<text text-anchor="start" x="114.568" y="-113.9" font-family="Arial" font-size="14.00" fill="#666666">[varchar]</text>
<polygon fill="none" stroke="#000000" points="43,-72.5 43,-102.5 289,-102.5 289,-72.5 43,-72.5"/>
<text text-anchor="start" x="50" y="-83.9" font-family="Arial" font-size="14.00" fill="#000000">email </text>
<text text-anchor="start" x="87.3296" y="-83.9" font-family="Arial" font-size="14.00" fill="#666666">[varchar]</text>
<polygon fill="none" stroke="#000000" points="43,-42.5 43,-72.5 289,-72.5 289,-42.5 43,-42.5"/>
<text text-anchor="start" x="50" y="-53.9" font-family="Arial" font-size="14.00" fill="#000000">phone </text>
<text text-anchor="start" x="92.8036" y="-53.9" font-family="Arial" font-size="14.00" fill="#666666">[varchar]</text>
</g>
<!-- public.payments -->
<g id="node2" class="node">
<title>public.payments</title>
<polygon fill="#efefef" stroke="transparent" points="381,-499.5 381,-534.5 622,-534.5 622,-499.5 381,-499.5"/>
<polygon fill="none" stroke="#000000" points="381,-499.5 381,-534.5 622,-534.5 622,-499.5 381,-499.5"/>
<text text-anchor="start" x="387.8589" y="-512.3" font-family="Arial Bold" font-size="18.00" fill="#000000">public.payments</text>
<text text-anchor="start" x="517.8873" y="-512.3" font-family="Arial" font-size="14.00" fill="#000000"> </text>
<text text-anchor="start" x="521.7779" y="-512.3" font-family="Arial" font-size="14.00" fill="#666666">[BASE TABLE]</text>
<polygon fill="none" stroke="#000000" points="381,-469.5 381,-499.5 622,-499.5 622,-469.5 381,-469.5"/>
<text text-anchor="start" x="388" y="-480.9" font-family="Arial" font-size="14.00" fill="#000000">id </text>
<text text-anchor="start" x="402.7798" y="-480.9" font-family="Arial" font-size="14.00" fill="#666666">[integer]</text>
<polygon fill="none" stroke="#000000" points="381,-439.5 381,-469.5 622,-469.5 622,-439.5 381,-439.5"/>
<text text-anchor="start" x="388" y="-450.9" font-family="Arial" font-size="14.00" fill="#000000">amount </text>
<text text-anchor="start" x="438.5722" y="-450.9" font-family="Arial" font-size="14.00" fill="#666666">[double precision]</text>
<polygon fill="none" stroke="#000000" points="381,-409.5 381,-439.5 622,-439.5 622,-409.5 381,-409.5"/>
<text text-anchor="start" x="388" y="-420.9" font-family="Arial" font-size="14.00" fill="#000000">datetime </text>
<text text-anchor="start" x="445.5694" y="-420.9" font-family="Arial" font-size="14.00" fill="#666666">[date]</text>
<polygon fill="none" stroke="#000000" points="381,-379.5 381,-409.5 622,-409.5 622,-379.5 381,-379.5"/>
<text text-anchor="start" x="388" y="-390.9" font-family="Arial" font-size="14.00" fill="#000000">method </text>
<text text-anchor="start" x="438.5722" y="-390.9" font-family="Arial" font-size="14.00" fill="#666666">[integer]</text>
<polygon fill="none" stroke="#000000" points="381,-349.5 381,-379.5 622,-379.5 622,-349.5 381,-349.5"/>
<text text-anchor="start" x="388" y="-360.9" font-family="Arial" font-size="14.00" fill="#000000">order_id </text>
<text text-anchor="start" x="443.2314" y="-360.9" font-family="Arial" font-size="14.00" fill="#666666">[integer]</text>
<polygon fill="none" stroke="#000000" points="381,-319.5 381,-349.5 622,-349.5 622,-319.5 381,-319.5"/>
<text text-anchor="start" x="388" y="-330.9" font-family="Arial" font-size="14.00" fill="#000000">customer_id </text>
<text text-anchor="start" x="468.122" y="-330.9" font-family="Arial" font-size="14.00" fill="#666666">[integer]</text>
</g>
<!-- public.payments&#45;&gt;public.customers -->
<g id="edge1" class="edge">
<title>public.payments:customer_id&#45;&gt;public.customers:id</title>
<path fill="none" stroke="#000000" d="M370.9742,-333.6663C295.3767,-320.176 378.0067,-147.5 289,-147.5"/>
<polygon fill="#000000" stroke="#000000" points="371.0344,-333.6712 380.627,-338.9845 376.0172,-334.0856 381,-334.5 381,-334.5 381,-334.5 376.0172,-334.0856 381.373,-330.0155 371.0344,-333.6712 371.0344,-333.6712"/>
<text text-anchor="start" x="107.6675" y="-318.5" font-family="Arial" font-size="10.00" fill="#000000">FOREIGN KEY (customer_id) REFERENCES customers(id)</text>
</g>
<!-- public.orders -->
<g id="node4" class="node">
<title>public.orders</title>
<polygon fill="#efefef" stroke="transparent" points="395,-147.5 395,-182.5 609,-182.5 609,-147.5 395,-147.5"/>
<polygon fill="none" stroke="#000000" points="395,-147.5 395,-182.5 609,-182.5 609,-147.5 395,-147.5"/>
<text text-anchor="start" x="401.867" y="-160.3" font-family="Arial Bold" font-size="18.00" fill="#000000">public.orders</text>
<text text-anchor="start" x="504.8792" y="-160.3" font-family="Arial" font-size="14.00" fill="#000000"> </text>
<text text-anchor="start" x="508.7698" y="-160.3" font-family="Arial" font-size="14.00" fill="#666666">[BASE TABLE]</text>
<polygon fill="none" stroke="#000000" points="395,-117.5 395,-147.5 609,-147.5 609,-117.5 395,-117.5"/>
<text text-anchor="start" x="402" y="-128.9" font-family="Arial" font-size="14.00" fill="#000000">id </text>
<text text-anchor="start" x="416.7798" y="-128.9" font-family="Arial" font-size="14.00" fill="#666666">[integer]</text>
<polygon fill="none" stroke="#000000" points="395,-87.5 395,-117.5 609,-117.5 609,-87.5 395,-87.5"/>
<text text-anchor="start" x="402" y="-98.9" font-family="Arial" font-size="14.00" fill="#000000">datetime </text>
<text text-anchor="start" x="459.5694" y="-98.9" font-family="Arial" font-size="14.00" fill="#666666">[date]</text>
<polygon fill="none" stroke="#000000" points="395,-57.5 395,-87.5 609,-87.5 609,-57.5 395,-57.5"/>
<text text-anchor="start" x="402" y="-68.9" font-family="Arial" font-size="14.00" fill="#000000">status </text>
<text text-anchor="start" x="443.237" y="-68.9" font-family="Arial" font-size="14.00" fill="#666666">[integer]</text>
</g>
<!-- public.payments&#45;&gt;public.orders -->
<g id="edge2" class="edge">
<title>public.payments:order_id&#45;&gt;public.orders:id</title>
<path fill="none" stroke="#000000" d="M631.9039,-362.9435C657.9466,-353.5958 643.9256,-304.3981 622,-277 557.3915,-196.2654 459.6085,-306.7346 395,-226 369.0353,-193.5546 353.4444,-132.5 395,-132.5"/>
<polygon fill="#000000" stroke="#000000" points="631.8787,-362.9473 621.3013,-360.0546 626.9394,-363.7237 622,-364.5 622,-364.5 622,-364.5 626.9394,-363.7237 622.6987,-368.9454 631.8787,-362.9473 631.8787,-362.9473"/>
<text text-anchor="start" x="506.9465" y="-348.5" font-family="Arial" font-size="10.00" fill="#000000">FOREIGN KEY (order_id) REFERENCES orders(id)</text>
</g>
<!-- public.address -->
<g id="node3" class="node">
<title>public.address</title>
<polygon fill="#efefef" stroke="transparent" points="50,-454.5 50,-489.5 277,-489.5 277,-454.5 50,-454.5"/>
<polygon fill="none" stroke="#000000" points="50,-454.5 50,-489.5 277,-489.5 277,-454.5 50,-454.5"/>
<text text-anchor="start" x="56.86" y="-467.3" font-family="Arial Bold" font-size="18.00" fill="#000000">public.address</text>
<text text-anchor="start" x="172.8862" y="-467.3" font-family="Arial" font-size="14.00" fill="#000000"> </text>
<text text-anchor="start" x="176.7768" y="-467.3" font-family="Arial" font-size="14.00" fill="#666666">[BASE TABLE]</text>
<polygon fill="none" stroke="#000000" points="50,-424.5 50,-454.5 277,-454.5 277,-424.5 50,-424.5"/>
<text text-anchor="start" x="57" y="-435.9" font-family="Arial" font-size="14.00" fill="#000000">customer_id </text>
<text text-anchor="start" x="137.122" y="-435.9" font-family="Arial" font-size="14.00" fill="#666666">[integer]</text>
<polygon fill="none" stroke="#000000" points="50,-394.5 50,-424.5 277,-424.5 277,-394.5 50,-394.5"/>
<text text-anchor="start" x="57" y="-405.9" font-family="Arial" font-size="14.00" fill="#000000">order_id </text>
<text text-anchor="start" x="112.2314" y="-405.9" font-family="Arial" font-size="14.00" fill="#666666">[integer]</text>
<polygon fill="none" stroke="#000000" points="50,-364.5 50,-394.5 277,-394.5 277,-364.5 50,-364.5"/>
<text text-anchor="start" x="57" y="-375.9" font-family="Arial" font-size="14.00" fill="#000000">address </text>
<text text-anchor="start" x="110.6816" y="-375.9" font-family="Arial" font-size="14.00" fill="#666666">[varchar]</text>
</g>
<!-- public.address&#45;&gt;public.customers -->
<g id="edge3" class="edge">
<title>public.address:customer_id&#45;&gt;public.customers:id</title>
<path fill="none" stroke="#000000" d="M287.4291,-438.3052C325.9207,-428.5517 305.0427,-361.3824 277,-322 213.1641,-232.3508 106.8359,-330.6492 43,-241 18.8962,-207.1493 1.4444,-147.5 43,-147.5"/>
<polygon fill="#000000" stroke="#000000" points="286.935,-438.3617 276.4878,-435.0292 281.9675,-438.9308 277,-439.5 277,-439.5 277,-439.5 281.9675,-438.9308 277.5122,-443.9708 286.935,-438.3617 286.935,-438.3617"/>
<text text-anchor="start" x="283.6675" y="-449.5" font-family="Arial" font-size="10.00" fill="#000000">FOREIGN KEY (customer_id) REFERENCES customers(id)</text>
</g>
<!-- public.address&#45;&gt;public.orders -->
<g id="edge4" class="edge">
<title>public.address:order_id&#45;&gt;public.orders:id</title>
<path fill="none" stroke="#000000" d="M287.1303,-408.7533C336.2549,-400.8524 305.7415,-331.8254 329,-277 335.8934,-260.7507 377.349,-132.5 395,-132.5"/>
<polygon fill="#000000" stroke="#000000" points="286.9729,-408.7648 276.6692,-405.0122 281.9865,-409.1324 277,-409.5 277,-409.5 277,-409.5 281.9865,-409.1324 277.3308,-413.9878 286.9729,-408.7648 286.9729,-408.7648"/>
<text text-anchor="start" x="284.4465" y="-419.5" font-family="Arial" font-size="10.00" fill="#000000">FOREIGN KEY (order_id) REFERENCES orders(id)</text>
</g>
<!-- public.order_details -->
<g id="node5" class="node">
<title>public.order_details</title>
<polygon fill="#efefef" stroke="transparent" points="726,-469.5 726,-504.5 993,-504.5 993,-469.5 726,-469.5"/>
<polygon fill="none" stroke="#000000" points="726,-469.5 726,-504.5 993,-504.5 993,-469.5 726,-469.5"/>
<text text-anchor="start" x="732.8593" y="-482.3" font-family="Arial Bold" font-size="18.00" fill="#000000">public.order_details</text>
<text text-anchor="start" x="888.8869" y="-482.3" font-family="Arial" font-size="14.00" fill="#000000"> </text>
<text text-anchor="start" x="892.7775" y="-482.3" font-family="Arial" font-size="14.00" fill="#666666">[BASE TABLE]</text>
<polygon fill="none" stroke="#000000" points="726,-439.5 726,-469.5 993,-469.5 993,-439.5 726,-439.5"/>
<text text-anchor="start" x="733" y="-450.9" font-family="Arial" font-size="14.00" fill="#000000">order_id </text>
<text text-anchor="start" x="788.2314" y="-450.9" font-family="Arial" font-size="14.00" fill="#666666">[integer]</text>
<polygon fill="none" stroke="#000000" points="726,-409.5 726,-439.5 993,-439.5 993,-409.5 726,-409.5"/>
<text text-anchor="start" x="733" y="-420.9" font-family="Arial" font-size="14.00" fill="#000000">menu_id </text>
<text text-anchor="start" x="790.5708" y="-420.9" font-family="Arial" font-size="14.00" fill="#666666">[integer]</text>
<polygon fill="none" stroke="#000000" points="726,-379.5 726,-409.5 993,-409.5 993,-379.5 726,-379.5"/>
<text text-anchor="start" x="733" y="-390.9" font-family="Arial" font-size="14.00" fill="#000000">quantity </text>
<text text-anchor="start" x="785.9088" y="-390.9" font-family="Arial" font-size="14.00" fill="#666666">[integer]</text>
<polygon fill="none" stroke="#000000" points="726,-349.5 726,-379.5 993,-379.5 993,-349.5 726,-349.5"/>
<text text-anchor="start" x="733" y="-360.9" font-family="Arial" font-size="14.00" fill="#000000">amount </text>
<text text-anchor="start" x="783.5722" y="-360.9" font-family="Arial" font-size="14.00" fill="#666666">[double precision]</text>
</g>
<!-- public.order_details&#45;&gt;public.orders -->
<g id="edge5" class="edge">
<title>public.order_details:order_id&#45;&gt;public.orders:id</title>
<path fill="none" stroke="#000000" d="M715.7539,-453.9035C648.8924,-445.5277 701.205,-350.6477 674,-277 649.5986,-210.9422 679.4206,-132.5 609,-132.5"/>
<polygon fill="#000000" stroke="#000000" points="716.0169,-453.9187 725.7384,-458.9924 721.0085,-454.2093 726,-454.5 726,-454.5 726,-454.5 721.0085,-454.2093 726.2616,-450.0076 716.0169,-453.9187 716.0169,-453.9187"/>
<text text-anchor="start" x="672.1965" y="-438.5" font-family="Arial" font-size="10.00" fill="#000000">FOREIGN KEY (order_id) REFERENCES orders(id)</text>
</g>
<!-- public.menu -->
<g id="node6" class="node">
<title>public.menu</title>
<polygon fill="#efefef" stroke="transparent" points="756,-162.5 756,-197.5 964,-197.5 964,-162.5 756,-162.5"/>
<polygon fill="none" stroke="#000000" points="756,-162.5 756,-197.5 964,-197.5 964,-162.5 756,-162.5"/>
<text text-anchor="start" x="762.8631" y="-175.3" font-family="Arial Bold" font-size="18.00" fill="#000000">public.menu</text>
<text text-anchor="start" x="859.8831" y="-175.3" font-family="Arial" font-size="14.00" fill="#000000"> </text>
<text text-anchor="start" x="863.7737" y="-175.3" font-family="Arial" font-size="14.00" fill="#666666">[BASE TABLE]</text>
<polygon fill="none" stroke="#000000" points="756,-132.5 756,-162.5 964,-162.5 964,-132.5 756,-132.5"/>
<text text-anchor="start" x="763" y="-143.9" font-family="Arial" font-size="14.00" fill="#000000">id </text>
<text text-anchor="start" x="777.7798" y="-143.9" font-family="Arial" font-size="14.00" fill="#666666">[integer]</text>
<polygon fill="none" stroke="#000000" points="756,-102.5 756,-132.5 964,-132.5 964,-102.5 756,-102.5"/>
<text text-anchor="start" x="763" y="-113.9" font-family="Arial" font-size="14.00" fill="#000000">name </text>
<text text-anchor="start" x="801.899" y="-113.9" font-family="Arial" font-size="14.00" fill="#666666">[varchar]</text>
<polygon fill="none" stroke="#000000" points="756,-72.5 756,-102.5 964,-102.5 964,-72.5 756,-72.5"/>
<text text-anchor="start" x="763" y="-83.9" font-family="Arial" font-size="14.00" fill="#000000">price </text>
<text text-anchor="start" x="797.223" y="-83.9" font-family="Arial" font-size="14.00" fill="#666666">[double precision]</text>
<polygon fill="none" stroke="#000000" points="756,-42.5 756,-72.5 964,-72.5 964,-42.5 756,-42.5"/>
<text text-anchor="start" x="763" y="-53.9" font-family="Arial" font-size="14.00" fill="#000000">description </text>
<text text-anchor="start" x="834.568" y="-53.9" font-family="Arial" font-size="14.00" fill="#666666">[varchar]</text>
</g>
<!-- public.order_details&#45;&gt;public.menu -->
<g id="edge6" class="edge">
<title>public.order_details:menu_id&#45;&gt;public.menu:id</title>
<path fill="none" stroke="#000000" d="M1002.9566,-423.4124C1042.2663,-413.9943 1022.3665,-345.6619 993,-307 926.863,-219.9285 822.137,-328.0715 756,-241 730.8644,-207.9082 714.4444,-147.5 756,-147.5"/>
<polygon fill="#000000" stroke="#000000" points="1002.9409,-423.414 992.5113,-420.0266 997.9704,-423.957 993,-424.5 993,-424.5 993,-424.5 997.9704,-423.957 993.4887,-428.9734 1002.9409,-423.414 1002.9409,-423.414"/>
<text text-anchor="start" x="1000.2755" y="-434.5" font-family="Arial" font-size="10.00" fill="#000000">FOREIGN KEY (menu_id) REFERENCES menu(id)</text>
</g>
</g>
</svg>
